<svg width="113" height="25" viewBox="0 0 113 25" fill="none" xmlns="http://www.w3.org/2000/svg">
<path d="M7.775 19.25C6.425 19.25 5.11667 19.0583 3.85 18.675C2.6 18.2917 1.60833 17.7833 0.875 17.15L2 14.625C2.71667 15.1917 3.59167 15.6583 4.625 16.025C5.675 16.375 6.725 16.55 7.775 16.55C9.075 16.55 10.0417 16.3417 10.675 15.925C11.325 15.5083 11.65 14.9583 11.65 14.275C11.65 13.775 11.4667 13.3667 11.1 13.05C10.75 12.7167 10.3 12.4583 9.75 12.275C9.2 12.0917 8.45 11.8833 7.5 11.65C6.16667 11.3333 5.08333 11.0167 4.25 10.7C3.43333 10.3833 2.725 9.89167 2.125 9.225C1.54167 8.54167 1.25 7.625 1.25 6.475C1.25 5.50833 1.50833 4.63333 2.025 3.85C2.55833 3.05 3.35 2.41667 4.4 1.95C5.46667 1.48333 6.76667 1.25 8.3 1.25C9.36667 1.25 10.4167 1.38333 11.45 1.65C12.4833 1.91667 13.375 2.3 14.125 2.8L13.1 5.325C12.3333 4.875 11.5333 4.53333 10.7 4.3C9.86667 4.06667 9.05833 3.95 8.275 3.95C6.99167 3.95 6.03333 4.16667 5.4 4.6C4.78333 5.03333 4.475 5.60833 4.475 6.325C4.475 6.825 4.65 7.23333 5 7.55C5.36667 7.86667 5.825 8.11667 6.375 8.3C6.925 8.48333 7.675 8.69167 8.625 8.925C9.925 9.225 10.9917 9.54167 11.825 9.875C12.6583 10.1917 13.3667 10.6833 13.95 11.35C14.55 12.0167 14.85 12.9167 14.85 14.05C14.85 15.0167 14.5833 15.8917 14.05 16.675C13.5333 17.4583 12.7417 18.0833 11.675 18.55C10.6083 19.0167 9.30833 19.25 7.775 19.25ZM30.3227 12.4C30.3227 12.6167 30.306 12.925 30.2727 13.325H19.7977C19.981 14.3083 20.456 15.0917 21.2227 15.675C22.006 16.2417 22.9727 16.525 24.1227 16.525C25.5893 16.525 26.7977 16.0417 27.7477 15.075L29.4227 17C28.8227 17.7167 28.0643 18.2583 27.1477 18.625C26.231 18.9917 25.1977 19.175 24.0477 19.175C22.581 19.175 21.2893 18.8833 20.1727 18.3C19.056 17.7167 18.1893 16.9083 17.5727 15.875C16.9727 14.825 16.6727 13.6417 16.6727 12.325C16.6727 11.025 16.9643 9.85833 17.5477 8.825C18.1477 7.775 18.9727 6.95833 20.0227 6.375C21.0727 5.79167 22.256 5.5 23.5727 5.5C24.8727 5.5 26.031 5.79167 27.0477 6.375C28.081 6.94167 28.881 7.75 29.4477 8.8C30.031 9.83333 30.3227 11.0333 30.3227 12.4ZM23.5727 8C22.5727 8 21.7227 8.3 21.0227 8.9C20.3393 9.48333 19.9227 10.2667 19.7727 11.25H27.3477C27.2143 10.2833 26.806 9.5 26.1227 8.9C25.4393 8.3 24.5893 8 23.5727 8ZM40.8994 5.5C42.5827 5.5 43.9327 5.99167 44.9494 6.975C45.9661 7.95833 46.4744 9.41667 46.4744 11.35V19H43.3494V11.75C43.3494 10.5833 43.0744 9.70833 42.5244 9.125C41.9744 8.525 41.1911 8.225 40.1744 8.225C39.0244 8.225 38.1161 8.575 37.4494 9.275C36.7827 9.95833 36.4494 10.95 36.4494 12.25V19H33.3244V5.65H36.2994V7.375C36.8161 6.75833 37.4661 6.29167 38.2494 5.975C39.0327 5.65833 39.9161 5.5 40.8994 5.5ZM63.6357 0.449999V19H60.6357V17.275C60.1191 17.9083 59.4774 18.3833 58.7107 18.7C57.9607 19.0167 57.1274 19.175 56.2107 19.175C54.9274 19.175 53.7691 18.8917 52.7357 18.325C51.7191 17.7583 50.9191 16.9583 50.3357 15.925C49.7524 14.875 49.4607 13.675 49.4607 12.325C49.4607 10.975 49.7524 9.78333 50.3357 8.75C50.9191 7.71667 51.7191 6.91667 52.7357 6.35C53.7691 5.78333 54.9274 5.5 56.2107 5.5C57.0941 5.5 57.9024 5.65 58.6357 5.95C59.3691 6.25 59.9941 6.7 60.5107 7.3V0.449999H63.6357ZM56.5857 16.5C57.3357 16.5 58.0107 16.3333 58.6107 16C59.2107 15.65 59.6857 15.1583 60.0357 14.525C60.3857 13.8917 60.5607 13.1583 60.5607 12.325C60.5607 11.4917 60.3857 10.7583 60.0357 10.125C59.6857 9.49167 59.2107 9.00833 58.6107 8.675C58.0107 8.325 57.3357 8.15 56.5857 8.15C55.8357 8.15 55.1607 8.325 54.5607 8.675C53.9607 9.00833 53.4857 9.49167 53.1357 10.125C52.7857 10.7583 52.6107 11.4917 52.6107 12.325C52.6107 13.1583 52.7857 13.8917 53.1357 14.525C53.4857 15.1583 53.9607 15.65 54.5607 16C55.1607 16.3333 55.8357 16.5 56.5857 16.5ZM75.1238 5.5C76.4238 5.5 77.5822 5.78333 78.5988 6.35C79.6322 6.91667 80.4405 7.71667 81.0238 8.75C81.6072 9.78333 81.8988 10.975 81.8988 12.325C81.8988 13.675 81.6072 14.875 81.0238 15.925C80.4405 16.9583 79.6322 17.7583 78.5988 18.325C77.5822 18.8917 76.4238 19.175 75.1238 19.175C73.3238 19.175 71.8988 18.575 70.8488 17.375V23.85H67.7238V5.65H70.6988V7.4C71.2155 6.76667 71.8488 6.29167 72.5988 5.975C73.3655 5.65833 74.2072 5.5 75.1238 5.5ZM74.7738 16.5C75.9238 16.5 76.8655 16.1167 77.5988 15.35C78.3488 14.5833 78.7238 13.575 78.7238 12.325C78.7238 11.075 78.3488 10.0667 77.5988 9.3C76.8655 8.53333 75.9238 8.15 74.7738 8.15C74.0238 8.15 73.3488 8.325 72.7488 8.675C72.1488 9.00833 71.6738 9.49167 71.3238 10.125C70.9738 10.7583 70.7988 11.4917 70.7988 12.325C70.7988 13.1583 70.9738 13.8917 71.3238 14.525C71.6738 15.1583 72.1488 15.65 72.7488 16C73.3488 16.3333 74.0238 16.5 74.7738 16.5ZM89.7916 5.5C91.7583 5.5 93.2583 5.975 94.2916 6.925C95.3416 7.85833 95.8666 9.275 95.8666 11.175V19H92.9166V17.375C92.5333 17.9583 91.9833 18.4083 91.2666 18.725C90.5666 19.025 89.7166 19.175 88.7166 19.175C87.7166 19.175 86.8416 19.0083 86.0916 18.675C85.3416 18.325 84.7583 17.85 84.3416 17.25C83.9416 16.6333 83.7416 15.9417 83.7416 15.175C83.7416 13.975 84.1833 13.0167 85.0666 12.3C85.9666 11.5667 87.3749 11.2 89.2916 11.2H92.7416V11C92.7416 10.0667 92.4583 9.35 91.8916 8.85C91.3416 8.35 90.5166 8.1 89.4166 8.1C88.6666 8.1 87.9249 8.21667 87.1916 8.45C86.4749 8.68333 85.8666 9.00833 85.3666 9.425L84.1416 7.15C84.8416 6.61667 85.6833 6.20833 86.6666 5.925C87.6499 5.64167 88.6916 5.5 89.7916 5.5ZM89.3666 16.9C90.1499 16.9 90.8416 16.725 91.4416 16.375C92.0583 16.0083 92.4916 15.4917 92.7416 14.825V13.275H89.5166C87.7166 13.275 86.8166 13.8667 86.8166 15.05C86.8166 15.6167 87.0416 16.0667 87.4916 16.4C87.9416 16.7333 88.5666 16.9 89.3666 16.9ZM112.133 5.65L105.883 20.075C105.3 21.525 104.591 22.5417 103.758 23.125C102.925 23.725 101.916 24.025 100.733 24.025C100.066 24.025 99.408 23.9167 98.758 23.7C98.108 23.4833 97.5747 23.1833 97.158 22.8L98.408 20.5C98.708 20.7833 99.058 21.0083 99.458 21.175C99.8747 21.3417 100.291 21.425 100.708 21.425C101.258 21.425 101.708 21.2833 102.058 21C102.425 20.7167 102.758 20.2417 103.058 19.575L103.283 19.05L97.458 5.65H100.708L104.908 15.525L109.133 5.65H112.133Z" fill="#6C63FF"/>
</svg>
